<svg  xmlns="http://www.w3.org/2000/svg" xmlns:xlink="http://www.w3.org/1999/xlink" x="0px" y="0px"
	 width="16px" height="16px" viewBox="0 0 16 16">
	<path fill="#8d8d8d" fill-rule="evenodd" d="M3.65,15.88H0.38V5.36h3.27V15.88z M2.01,3.92c-1.04,0-1.89-0.87-1.89-1.91c0-1.04,0.85-1.89,1.89-1.89
		c1.04,0,1.89,0.85,1.89,1.89C3.91,3.06,3.06,3.92,2.01,3.92z M15.87,15.88h-3.26v-5.12c0-1.22-0.02-2.79-1.7-2.79
		c-1.7,0-1.96,1.33-1.96,2.7v5.21H5.7V5.36h3.13v1.43h0.05c0.44-0.83,1.5-1.7,3.09-1.7c3.31,0,3.91,2.18,3.91,5L15.87,15.88
		L15.87,15.88z"/>
</svg>
