<svg  xmlns="http://www.w3.org/2000/svg" xmlns:xlink="http://www.w3.org/1999/xlink" x="0px" y="0px"
	 width="13.5px" height="17.55px" viewBox="0 0 13.5 17.55">
	<path fill="#8d8d8d" fill-rule="evenodd" d="M7.17,0C3.57,0,0,2.41,0,6.3c0,2.48,1.39,3.88,2.24,3.88c0.35,0,0.55-0.97,0.55-1.24
		c0-0.33-0.83-1.02-0.83-2.38c0-2.83,2.15-4.83,4.94-4.83c2.39,0,4.17,1.36,4.17,3.86c0,1.87-0.75,5.37-3.18,5.37
		c-0.88,0-1.62-0.63-1.62-1.54c0-1.33,0.93-2.62,0.93-3.99c0-2.33-3.3-1.91-3.3,0.91c0,0.59,0.07,1.24,0.34,1.78
		c-0.49,2.09-1.48,5.2-1.48,7.35c0,0.66,0.09,1.32,0.16,1.98c0.12,0.13,0.06,0.12,0.24,0.05c1.77-2.43,1.71-2.9,2.51-6.08
		c0.43,0.82,1.55,1.27,2.44,1.27c3.73,0,5.41-3.64,5.41-6.92C13.5,2.28,10.49,0,7.17,0z"/>
</svg>
