
<svg  xmlns="http://www.w3.org/2000/svg" xmlns:xlink="http://www.w3.org/1999/xlink" x="0px" y="0px"
	 width="16px" height="16px" viewBox="0 0 16 16">
   <path fill="#fe3e57" fill-rule="evenodd" d="M14.36,4.74c0.01,0.14,0.01,0.28,0.01,0.43c0,4.34-3.3,9.33-9.33,9.33c-1.86,0-3.58-0.54-5.04-1.47
		c0.26,0.03,0.52,0.04,0.79,0.04c1.53,0,2.94-0.52,4.07-1.4c-1.44-0.03-2.65-0.97-3.07-2.27C2,9.42,2.2,9.44,2.42,9.44
		c0.29,0,0.59-0.04,0.86-0.11c-1.5-0.3-2.63-1.62-2.63-3.22V6.07c0.44,0.24,0.94,0.4,1.48,0.42C1.25,5.9,0.67,4.89,0.67,3.76
		c0-0.61,0.16-1.17,0.45-1.65c1.61,1.99,4.04,3.29,6.76,3.43C7.83,5.29,7.8,5.04,7.8,4.78c0-1.81,1.46-3.28,3.28-3.28
		c0.94,0,1.8,0.4,2.4,1.04c0.74-0.14,1.45-0.42,2.08-0.79c-0.24,0.76-0.76,1.4-1.44,1.81c0.66-0.07,1.3-0.25,1.89-0.51
		C15.55,3.7,14.99,4.27,14.36,4.74L14.36,4.74z"/>
</svg>
